<svg xmlns="http://www.w3.org/2000/svg" fill="none" viewBox="0 0 24 24" stroke-width="1.5" stroke="#096FA0">
  <path stroke-linecap="round" stroke-linejoin="round" d="M3 8.25V6a2.25 2.25 0 012.25-2.25h13.5A2.25 2.25 0 0121 6v2.25m-18 0A2.25 2.25 0 005.25 8.5h13.5A2.25 2.25 0 0021 6.75m-18 0v13.5A2.25 2.25 0 005.25 21h13.5A2.25 2.25 0 0021 18.75V6.75m-18 0h18M9.75 9.75v4.5m0-4.5h4.5m-4.5 0L21 3m-18 18L3 3" />
  <path stroke-linecap="round" stroke-linejoin="round" d="M3 13.5h14.25M3 18h9.75" />
</svg>
